<svg xmlns="http://www.w3.org/2000/svg" xmlns:xlink="http://www.w3.org/1999/xlink" viewBox="0 0 1200 1920">
  <defs>
    <linearGradient id="a" data-name="Dégradé sans nom 14" x1="301.19" y1="1242.33" x2="301.19" y2="1920.11" gradientUnits="userSpaceOnUse">
      <stop offset="0.14" stop-color="#fff"/>
      <stop offset="0.53" stop-color="#f0f0f0"/>
      <stop offset="1"/>
    </linearGradient>
    <linearGradient id="b" x1="897.86" y1="1242.33" x2="897.86" y2="1920.11" xlink:href="#a"/>
    <filter id="d" filterUnits="userSpaceOnUse" color-interpolation-filters="sRGB">
      <feColorMatrix values="-1 0 0 0 1 0 -1 0 0 1 0 0 -1 0 1 0 0 0 1 0"/>
    </filter>
    <mask id="c" x="1.75" y="1235.94" width="1197.29" height="684.17" maskUnits="userSpaceOnUse">
      <g filter="url(#d)">
        <path d="M1.75,1919V1242.33s315.56,257.78,598.89,257.78l-1.11,420Z" fill="url(#a)"/>
        <path d="M1197.31,1919V1242.33s-315.56,257.78-598.89,257.78l1.11,420Z" fill="url(#b)"/>
      </g>
    </mask>
  </defs>
  <title>Plan de travail 1</title>
  <g style="isolation: isolate">
    <g>
      <rect x="-359.53" y="359.55" width="1920" height="1200" transform="translate(1560.03 359.08) rotate(90)" fill="#f0f0f0"/>
      <g mask="url(#c)">
        <g opacity="0.52">
          <g>
            <rect x="1.9" y="1238.44" width="1197.14" height="681.12" fill="#b6e4ec"/>
            <path d="M1161.39,1238.44q6.84,3.7,14.18,7.79a90.83,90.83,0,0,1,19.83,14.91v-22.7Z" fill="#ee5450" stroke="#fff" stroke-miterlimit="10" stroke-width="5"/>
            <path d="M1161.39,1238.44q6.84,3.7,14.18,7.79a90.83,90.83,0,0,1,19.83,14.91v-22.7Z" fill="#ee5450"/>
            <path d="M1161.39,1238.44q6.84,3.7,14.18,7.79a90.83,90.83,0,0,1,19.83,14.91v-22.7Z" fill="none"/>
            <path d="M188.81,1618.94l-10.88-6.88-2.38,2.68c-18.68-3-39.68-11-60-23.84s-36.57-28.37-47.33-44l1.39-3.29-10.88-6.88c-6.08,10.14-12.72,21-20,32.54a112.22,112.22,0,0,1-32,33.35v313.53h36a279.16,279.16,0,0,0,8.18-30.38c9.74-45.48,16.17-97.51,74.29-140.06a299.14,299.14,0,0,0,26.63-22.6c-3.63-22.68,1.55-48.76,16.26-72.1C175.42,1639.45,182.29,1628.79,188.81,1618.94Zm-124,36.67c-25.05-22.39-15.14-61.29-2.75-93.39A89,89,0,0,1,64.79,1655.61Zm14.38,9a88.69,88.69,0,0,1,85.11-37.7C140.45,1651.63,109.11,1676.76,79.17,1664.61Z" fill="#ee5450" stroke="#fff" stroke-miterlimit="10" stroke-width="5"/>
            <path d="M63,1658.58a88.74,88.74,0,0,1-19.68,22l22.52,14.22a88.79,88.79,0,0,1,109.51-65.68l8.42-13.38c-20.59-1.74-44.87-10.12-68.2-24.86s-41.35-33.08-51.79-51l-8.42,13.38A89,89,0,0,1,63,1658.58Z" fill="#558c48"/>
            <path d="M188.81,1618.94l-10.88-6.88c-26.27,29.62-68.09,72.82-106.33,48.66-39.76-25.12-17.44-80.64-2-117.07l-10.88-6.88c-6.08,10.14-12.72,21-20,32.54a112.22,112.22,0,0,1-32,33.35v313.53h36a279.16,279.16,0,0,0,8.18-30.38c9.74-45.48,16.17-97.51,74.29-140.06a297.69,297.69,0,0,0,26.62-22.6c-3.62-22.68,1.56-48.76,16.27-72.1C175.41,1639.45,182.29,1628.79,188.81,1618.94Z" fill="#7bb353"/>
            <path d="M188.81,1618.94l-10.88-6.88-2.38,2.68c-18.68-3-39.68-11-60-23.84s-36.57-28.37-47.33-44l1.39-3.29-10.88-6.88c-6.08,10.14-12.72,21-20,32.54a112.22,112.22,0,0,1-32,33.35v313.53h36a279.16,279.16,0,0,0,8.18-30.38c9.74-45.48,16.17-97.51,74.29-140.06a297.69,297.69,0,0,0,26.62-22.6c-3.62-22.68,1.56-48.76,16.27-72.1C175.41,1639.45,182.29,1628.79,188.81,1618.94Zm-124,36.67c-25.05-22.39-15.14-61.29-2.75-93.39A89,89,0,0,1,64.79,1655.61Zm14.38,9a88.69,88.69,0,0,1,85.11-37.7C140.45,1651.63,109.11,1676.76,79.17,1664.61Z" fill="none"/>
            <path d="M188.81,1618.94l-10.88-6.88-2.38,2.68c-18.68-3-39.68-11-60-23.84L6.71,1763.71v152.48h36a279.16,279.16,0,0,0,8.18-30.38c9.74-45.48,16.17-97.51,74.29-140.06a297.69,297.69,0,0,0,26.62-22.6c-3.62-22.68,1.56-48.76,16.27-72.1C175.41,1639.45,182.29,1628.79,188.81,1618.94ZM79.17,1664.61a88.69,88.69,0,0,1,85.11-37.7C140.45,1651.63,109.11,1676.76,79.17,1664.61Z" fill="#fff" opacity="0.28" style="mix-blend-mode: overlay"/>
            <path d="M14.07,1882.67l8.38,5.29" fill="none" stroke="#fef7e2" stroke-linecap="round" stroke-linejoin="round" stroke-width="3"/>
            <g>
              <line x1="552.38" y1="1787.39" x2="659" y2="1880.04" fill="none" stroke="#fff" stroke-miterlimit="10" stroke-width="3"/>
              <path d="M739.38,1916.19a68.91,68.91,0,0,0-6.73-6.73c-26.64-23.14-75.43-31-75.43-31a226.55,226.55,0,0,0,16.37,37.7Z" fill="#f6a93f"/>
            </g>
            <g>
              <line x1="544.98" y1="1799.59" x2="642.97" y2="1899.45" fill="none" stroke="#fff" stroke-miterlimit="10" stroke-width="3"/>
              <path d="M688.19,1916.19c-22.8-12.46-46.87-18.43-46.87-18.43s1.69,7.64,5.26,18.43Z" fill="#f6a93f"/>
            </g>
            <path d="M540.68,1807.15c27.65,33.59,52,69.11,79.46,102.73" fill="none" stroke="#fff" stroke-miterlimit="10" stroke-width="3"/>
            <g>
              <line x1="557.19" y1="1781.01" x2="675.56" y2="1858.11" fill="none" stroke="#fff" stroke-miterlimit="10" stroke-width="3"/>
              <path d="M717.29,1916.19h62c-2.16-10.55-8.49-26.76-26.83-38.79-29.49-19.36-78.89-20.58-78.89-20.58S691.35,1895.08,717.29,1916.19Z" fill="#f6a93f"/>
            </g>
            <g>
              <line x1="566.79" y1="1770.69" x2="689.84" y2="1837.37" fill="none" stroke="#fff" stroke-miterlimit="10" stroke-width="3"/>
              <path d="M768.09,1850.18c-31-16.84-80.32-13.94-80.32-13.94s24.47,43,55.48,59.82,56.78,1.15,56.78,1.15S799.09,1867,768.09,1850.18Z" fill="#f6a93f"/>
            </g>
            <g>
              <line x1="574.16" y1="1763.81" x2="702.45" y2="1816.09" fill="none" stroke="#fff" stroke-miterlimit="10" stroke-width="3"/>
              <path d="M781.64,1820.15c-32.67-13.3-81.38-5-81.38-5s29.08,40,61.75,53.31,56.56-5.15,56.56-5.15S814.31,1833.45,781.64,1820.15Z" fill="#f6a93f"/>
            </g>
            <path d="M670.66,1803.14s-23.31,15.52-40.28,38c-17.42,23.07-25.52,49.16-25.52,49.16" fill="none" stroke="#fff" stroke-miterlimit="10" stroke-width="3"/>
            <path d="M638.09,1789.83a137.21,137.21,0,0,0-33.6,31.7,148.61,148.61,0,0,0-21.3,41" fill="none" stroke="#fff" stroke-miterlimit="10" stroke-width="3"/>
            <line x1="823.8" y1="1865.49" x2="695.04" y2="1813.07" fill="none" stroke="#fff" stroke-linecap="square" stroke-miterlimit="10" stroke-width="3"/>
            <line x1="806.27" y1="1900.6" x2="681.53" y2="1832.85" fill="none" stroke="#fff" stroke-linecap="square" stroke-miterlimit="10" stroke-width="3"/>
            <path d="M754.28,1909.79l-45.93-30.16-35.72-23.44-6.78-4.45" fill="none" stroke="#fff" stroke-linecap="square" stroke-miterlimit="10" stroke-width="3"/>
            <path d="M693.28,1909.81c-15.22-11.35-27.41-25.78-42.76-37.14" fill="none" stroke="#fff" stroke-linecap="square" stroke-miterlimit="10" stroke-width="3"/>
            <path d="M653,1909.78c-6-5.77-10.44-11.32-15.84-16.26" fill="none" stroke="#fff" stroke-linecap="square" stroke-miterlimit="10" stroke-width="3"/>
            <path d="M497.64,1742.08h0a40.29,40.29,0,0,1,56.49-7.86l32.16,24.35s-18.54,14-29.37,28.39c-11.07,14.66-19.26,36-19.26,36l-32.17-24.35A40.43,40.43,0,0,1,497.64,1742.08Z" fill="#434343" stroke="#fff" stroke-miterlimit="10" stroke-width="5"/>
            <path d="M497.64,1742.08h0a40.29,40.29,0,0,1,56.49-7.86l32.16,24.35s-18.54,14-29.37,28.39c-11.07,14.66-19.26,36-19.26,36l-32.17-24.35A40.43,40.43,0,0,1,497.64,1742.08Z" fill="#434343"/>
            <path d="M569.89,1746.15s-18.55,14-29.37,28.39c-11.07,14.66-19.27,36-19.27,36" fill="none" stroke="#fff" stroke-linecap="square" stroke-linejoin="round" stroke-width="3.02"/>
            <path d="M168.64,1539.83a8.26,8.26,0,0,0-.51-1.72l-67.86-160.38h0l-21.49-50.8-.59-1.39-36.86-87.1H4.85v36.18L42.36,1343l.24.44,9.85,18,4.21,7.67,96.62,176.21a8.32,8.32,0,0,0,1.08,1.5c-1.54,2.41-2,5-1,7.2,2,4,8.38,5,14.3,2.09s9.14-8.52,7.17-12.57C173.82,1541.37,171.49,1540.1,168.64,1539.83Z" fill="#f6a93f" stroke="#fff" stroke-miterlimit="10" stroke-width="5"/>
            <g>
              <path d="M41.33,1238.44H4.85v36.18l148.43,270.7a8.26,8.26,0,0,0,14.85-7.21Z" fill="#6d4c42"/>
              <path d="M100.27,1377.73l67.86,160.38a8.26,8.26,0,0,1-14.85,7.21L69.6,1392.7Z" fill="#f6a93f"/>
              <path d="M28.48,1238.44c4.23,7.35,7,11.51,7.53,11.23s-.8-4.34-3.54-11.23Z" fill="#fff" opacity="0.54" style="mix-blend-mode: overlay"/>
              <path d="M153.41,1554c2,4,8.38,5,14.3,2.09s9.14-8.52,7.17-12.57-8.37-5-14.3-2.09S151.44,1550,153.41,1554Z" fill="#f6a93f"/>
              <polygon points="81.6 1333.6 46.56 1350.7 42.36 1343.03 78.19 1325.54 81.6 1333.6" fill="#f6a93f"/>
              <polygon points="89.78 1352.94 56.66 1369.11 52.45 1361.44 86.37 1344.88 89.78 1352.94" fill="#f6a93f"/>
            </g>
            <path d="M478,1916.19a27,27,0,0,1-.29-3.13c-.47-14.76,1.8-48.08,3.76-69.52a29.36,29.36,0,0,0-15.68-28.71l-4.6-2.4a10.83,10.83,0,0,0-15.82,9.39l-1.63,87.68a29.93,29.93,0,0,0,.62,6.69Z" fill="#6d4c42" stroke="#fff" stroke-miterlimit="10" stroke-width="5"/>
            <path d="M478,1916.19a27,27,0,0,1-.29-3.13c-.47-14.76,1.8-48.08,3.76-69.52a29.36,29.36,0,0,0-15.68-28.71l-4.6-2.4a10.83,10.83,0,0,0-15.82,9.39l-1.63,87.68a29.93,29.93,0,0,0,.62,6.69Z" fill="#6d4c42"/>
            <g>
              <g>
                <rect x="437.86" y="1832.86" width="49.83" height="5.5" transform="translate(-48.32 12.86) rotate(-1.51)" fill="#01838f"/>
                <rect x="458.88" y="1824.28" width="5.5" height="47.72" transform="translate(-1442.97 1882.61) rotate(-77.01)" fill="#01838f"/>
                <rect x="458.44" y="1831.6" width="5.5" height="49.24" transform="translate(-1437.93 2083.33) rotate(-82.87)" fill="#01838f"/>
                <rect x="461.76" y="1840.17" width="5.5" height="48.3" transform="translate(-1456.68 1842.75) rotate(-75.37)" fill="#01838f"/>
                <rect x="458.31" y="1852.95" width="5.5" height="42.14" transform="translate(-1447.11 2162.85) rotate(-84.79)" fill="#01838f"/>
                <rect x="456.9" y="1857.52" width="5.5" height="52.24" transform="translate(-1465.14 2117.16) rotate(-83.2)" fill="#01838f"/>
                <rect x="456.75" y="1869.88" width="5.5" height="46.85" transform="translate(-1461.43 2218.54) rotate(-85.97)" fill="#01838f"/>
                <rect x="456.07" y="1878" width="5.5" height="53.32" transform="translate(-1500.16 1930.05) rotate(-77.2)" fill="#01838f"/>
              </g>
              <path d="M478,1916.19a27,27,0,0,1-.29-3.13c-.47-14.76,1.8-48.08,3.76-69.52a29.36,29.36,0,0,0-15.68-28.71l-4.6-2.4a10.83,10.83,0,0,0-15.82,9.39l-1.63,87.68a29.93,29.93,0,0,0,.62,6.69Z" fill="none"/>
            </g>
            <path d="M1195.39,1751.14a113.36,113.36,0,0,0-57.65,165.07h57.65Z" fill="#fff" stroke="#fff" stroke-miterlimit="10" stroke-width="6"/>
            <path d="M1195.39,1751.16a113.33,113.33,0,0,0-57.64,165h57.64Z" fill="#fff"/>
            <path d="M1158.46,1916.21a109.4,109.4,0,0,0,10.85-146.46,109.45,109.45,0,0,0-27,146.46Z" fill="none" stroke="#e63935" stroke-miterlimit="10" stroke-width="3"/>
            <path d="M1144.22,1910.23c28.31-23.92,40.55-63.87,30.41-99.55A96.22,96.22,0,0,0,1158,1778" fill="none" stroke="#e63935" stroke-miterlimit="10" stroke-width="1.33"/>
            <path d="M1195.39,1754.71a110.07,110.07,0,0,0-53.77,161.5h53.77Z" fill="none" stroke="#37474f" stroke-miterlimit="10" stroke-width="3"/>
            <ellipse cx="549.99" cy="1608.47" rx="87.97" ry="88.1" fill="#fff" stroke="#fff" stroke-miterlimit="10" stroke-width="6"/>
            <ellipse cx="549.99" cy="1608.47" rx="87.97" ry="88.1" fill="#fff"/>
            <g>
              <ellipse cx="491.16" cy="1600.5" rx="60.77" ry="25.55" transform="translate(-1160.68 1873) rotate(-82.31)" fill="none" stroke="#e63935" stroke-miterlimit="10" stroke-width="3"/>
              <ellipse cx="608.82" cy="1616.45" rx="60.77" ry="25.55" transform="translate(-1074.57 2003.42) rotate(-82.31)" fill="none" stroke="#e63935" stroke-miterlimit="10" stroke-width="3"/>
            </g>
            <g>
              <path d="M476.28,1652.2a74.5,74.5,0,0,0,14.26-105.51" fill="none" stroke="#e63935" stroke-miterlimit="10" stroke-width="1.33"/>
              <path d="M623.7,1564.74a74.5,74.5,0,0,0-14.26,105.51" fill="none" stroke="#e63935" stroke-miterlimit="10" stroke-width="1.33"/>
            </g>
            <ellipse cx="549.99" cy="1608.47" rx="85.38" ry="85.51" fill="none" stroke="#37474f" stroke-miterlimit="10" stroke-width="3"/>
            <ellipse cx="813" cy="1631.36" rx="140.41" ry="140.62" fill="#fff" stroke="#fff" stroke-miterlimit="10" stroke-width="5"/>
            <g>
              <ellipse cx="813" cy="1631.36" rx="135.51" ry="135.7" fill="#fff"/>
              <g>
                <ellipse cx="813" cy="1631.36" rx="135.51" ry="135.7" fill="none" stroke="#37474f" stroke-miterlimit="10" stroke-width="3"/>
                <path d="M692.37,1569.49l8.43-3.69c-7.33,20.42-6,53.49-6,53.49-6.35,16.72-13.31,44.84-13.31,44.84S668.85,1620.31,692.37,1569.49Z" fill="#434343"/>
                <path d="M706.37,1715.11s16.72,9.9,35.25,14.85c0,0,15.79,18,30.12,22.79l-.86,7.64S724.12,1743.37,706.37,1715.11Z" fill="#434343"/>
                <path d="M754.78,1701.73s-21-42.07-21.3-61c0,0,47.77-46.13,50-46.89l59.33,41.07-21.42,65.54A226.94,226.94,0,0,1,754.78,1701.73Z" fill="#434343"/>
                <path d="M866.23,1756.15s-12.46-.5-21.33-6.82c0,0,14.87-10.42,17-24.17,0,0,48.9-19.57,51.46-30.09,0,0,5.74,20.87,3.91,23S884.86,1749.72,866.23,1756.15Z" fill="#434343"/>
                <path d="M925.35,1555.48s-22.93-5.8-34.16-2.09c0,0,7.42,31,4.1,49.73,0,0,26,15.05,37,36.67,0,0,12.48-4.67,15.65-21.25C947.93,1618.54,937.93,1568.63,925.35,1555.48Z" fill="#434343"/>
                <path d="M759,1506.91c-.64.25-7.27,17.36-7.55,25.45l38.92,13.56,55.31-19.35L838.06,1498S798.39,1491.22,759,1506.91Z" fill="#434343"/>
                <line x1="741.62" y1="1729.96" x2="754.78" y2="1701.73" fill="none" stroke="#37474f" stroke-linecap="square" stroke-miterlimit="10" stroke-width="3"/>
                <path d="M694.79,1619.29s22.65,16.61,38.69,21.39" fill="none" stroke="#37474f" stroke-linecap="square" stroke-miterlimit="10" stroke-width="3"/>
                <path d="M696.71,1568.5s16.41-25.58,58.79-38.84" fill="none" stroke="#37474f" stroke-linecap="square" stroke-miterlimit="10" stroke-width="3"/>
                <line x1="782.63" y1="1599.44" x2="791.15" y2="1540.27" fill="none" stroke="#37474f" stroke-miterlimit="10" stroke-width="3"/>
                <path d="M841.09,1523.89s28.07,9,54.65,32.18" fill="none" stroke="#37474f" stroke-linecap="square" stroke-miterlimit="10" stroke-width="3"/>
                <path d="M842.78,1634.86s44.49-23.7,52.51-31.74" fill="none" stroke="#37474f" stroke-linecap="square" stroke-miterlimit="10" stroke-width="3"/>
                <path d="M910.33,1703.18s16.55-25,24.54-71.62" fill="none" stroke="#37474f" stroke-linecap="square" stroke-miterlimit="10" stroke-width="3"/>
                <path d="M765.1,1753.78s45.7,12.45,88.51-7" fill="none" stroke="#37474f" stroke-linecap="square" stroke-miterlimit="10" stroke-width="3"/>
                <path d="M821.36,1700.4s11.82,11.41,40.52,24.76" fill="none" stroke="#37474f" stroke-linecap="square" stroke-miterlimit="10" stroke-width="3"/>
              </g>
            </g>
            <path d="M5.75,1357.07l-.9-.25v167.87a87.15,87.15,0,0,0,59.63-59A87.33,87.33,0,0,0,5.75,1357.07Z" fill="#fff" stroke="#fff" stroke-miterlimit="10" stroke-width="5"/>
            <g>
              <path d="M4.89,1360h0v161.54a84.09,84.09,0,0,0,56.71-56.75A84.29,84.29,0,0,0,4.89,1360Z" fill="#fff"/>
              <g>
                <path d="M4.89,1360h0v79.93a6,6,0,0,1,.73,1.48,5.67,5.67,0,0,1-.56,4.28c0,.08-.12.15-.17.23v47a6.87,6.87,0,0,1,0,1.57v27.07a84.09,84.09,0,0,0,56.71-56.75A84.29,84.29,0,0,0,4.89,1360Z" fill="none" stroke="#37474f" stroke-miterlimit="10" stroke-width="3"/>
                <path d="M43.21,1480.32c-1.59,6.53-31.95,18.68-31.95,18.68-.86,5.6-5.11,10.3-7.95,12.88a6,6,0,0,1,.68,4,30.76,30.76,0,0,0,10,2.4c11.57-4,30.55-22.29,31.68-23.63S43.21,1480.32,43.21,1480.32Z" fill="#434343"/>
                <path d="M50.67,1393.65s-14.23-3.6-21.21-1.3c0,0,4.61,19.23,2.55,30.88,0,0,16.11,9.35,23,22.77,0,0,7.75-2.9,9.72-13.19C64.69,1432.81,58.48,1401.82,50.67,1393.65Z" fill="#434343"/>
                <path d="M4.94,1376.66A109.73,109.73,0,0,1,32.29,1394" fill="none" stroke="#37474f" stroke-linecap="square" stroke-miterlimit="10" stroke-width="3"/>
                <path d="M5.71,1439.51c8.68-4.77,19.09-9.36,26.3-16.28" fill="none" stroke="#37474f" stroke-linecap="square" stroke-miterlimit="10" stroke-width="3"/>
                <path d="M41.35,1485.36s10.27-15.55,15.24-44.47" fill="none" stroke="#37474f" stroke-linecap="square" stroke-miterlimit="10" stroke-width="3"/>
                <path d="M6,1496.44c1.74.88,3.51,1.74,5.28,2.56" fill="none" stroke="#37474f" stroke-linecap="square" stroke-miterlimit="10" stroke-width="3"/>
              </g>
            </g>
            <path d="M1194.53,1325c-37.16-2.43-115.46-1.17-171,44-64.12,52.23-77.1,146.23-79.53,172.74a7.48,7.48,0,0,0,6.55,8.07c26.41,3,120.95,9.42,185.07-42.81,28.61-23.3,47-54.92,58.88-85.15Z" fill="#6d4c42" stroke="#fff" stroke-miterlimit="10" stroke-width="5"/>
            <path d="M1194.53,1325c-37.16-2.43-115.46-1.17-171,44-64.12,52.23-77.1,146.23-79.53,172.74a7.48,7.48,0,0,0,6.55,8.07c26.41,3,120.95,9.42,185.07-42.81,28.61-23.3,47-54.92,58.88-85.15Z" fill="#6d4c42"/>
            <path d="M1194.53,1332.35c-30.5,4.08-96.61,17.68-150.65,61.7-62.11,50.59-88.18,125-94.51,145.81-1,3.13.92,5.44,4.18,5.14,21.61-2,99.68-12.38,161.79-63,39.71-32.35,64.69-74.44,79.19-106Z" fill="#8d6e63" stroke="#37474f" stroke-miterlimit="10" stroke-width="3.59"/>
            <path d="M1154.71,1413.86l-114,92.87c-5.24,4.27-12.47,4-16.46-.65a5.18,5.18,0,0,1-.86-1.4l-6.6-15.46L1003,1479.6a5.23,5.23,0,0,1-1.18-1.12c-3.72-4.87-2.53-12,2.71-16.28l114-92.88c5.24-4.26,12.47-4,16.46.66a5.59,5.59,0,0,1,.87,1.39l6.59,15.47,13.78,9.62a5.23,5.23,0,0,1,1.18,1.12C1161.14,1402.44,1160,1409.59,1154.71,1413.86Z" fill="#fff" stroke="#37474f" stroke-linecap="round" stroke-linejoin="round" stroke-width="2.76"/>
            <line x1="1022.97" y1="1482.46" x2="1134.59" y2="1391.53" fill="none" stroke="#37474f" stroke-linecap="round" stroke-linejoin="round" stroke-width="2.76"/>
            <g>
              <line x1="1025.92" y1="1464.56" x2="1041.07" y2="1483.22" fill="none" stroke="#37474f" stroke-linecap="round" stroke-linejoin="round" stroke-width="2.76"/>
              <line x1="1037.24" y1="1455.34" x2="1052.39" y2="1473.99" fill="none" stroke="#37474f" stroke-linecap="round" stroke-linejoin="round" stroke-width="2.76"/>
              <line x1="1048.56" y1="1446.12" x2="1063.71" y2="1464.77" fill="none" stroke="#37474f" stroke-linecap="round" stroke-linejoin="round" stroke-width="2.76"/>
              <line x1="1059.89" y1="1436.89" x2="1075.04" y2="1455.55" fill="none" stroke="#37474f" stroke-linecap="round" stroke-linejoin="round" stroke-width="2.76"/>
              <line x1="1071.21" y1="1427.67" x2="1086.36" y2="1446.32" fill="none" stroke="#37474f" stroke-linecap="round" stroke-linejoin="round" stroke-width="2.76"/>
              <line x1="1082.53" y1="1418.45" x2="1097.68" y2="1437.1" fill="none" stroke="#37474f" stroke-linecap="round" stroke-linejoin="round" stroke-width="2.76"/>
              <line x1="1093.85" y1="1409.22" x2="1109" y2="1427.88" fill="none" stroke="#37474f" stroke-linecap="round" stroke-linejoin="round" stroke-width="2.76"/>
              <line x1="1105.17" y1="1400" x2="1120.32" y2="1418.65" fill="none" stroke="#37474f" stroke-linecap="round" stroke-linejoin="round" stroke-width="2.76"/>
              <line x1="1116.5" y1="1390.78" x2="1131.65" y2="1409.43" fill="none" stroke="#37474f" stroke-linecap="round" stroke-linejoin="round" stroke-width="2.76"/>
            </g>
            <path d="M943.33,1538.86a11.23,11.23,0,0,0,10.77,12.44c7.26.4,15.84,1.6,28.06,1.41,9.23-.14,45.3-3.27,45.3-3.27L1005.05,1537l-6-33.27-29.51-14.14-9.42-23.06s-9.93,35.4-11.88,44.1A223.53,223.53,0,0,0,943.33,1538.86Z" fill="#434343"/>
            <path d="M1194.53,1323.9c-4.94-.38-10.6-.7-17.4-.6-9.23.15-45.3,3.28-45.3,3.28l22.41,12.48,6,33.26,29.51,14.15,4.74,11.61Z" fill="#434343"/>
            <path d="M310.8,1599.86c27.55,16.3,57.09,19.49,81.2,18.1l35-59.3c-10.4-21.82-27.43-46.2-55-62.51-36.35-21.52-87.57-27-123-27.82a47.25,47.25,0,0,1-37.19-19.4c-5.81-8-12.51-15.49-19.52-19.64-20.74-12.28-38.63-9.23-46,3.23s-1.39,29.64,19.34,41.91c7,4.15,16.76,6.44,26.6,7.66a47.27,47.27,0,0,1,34.9,23.27C245,1536,274.45,1578.34,310.8,1599.86Z" fill="#fff" stroke="#fff" stroke-miterlimit="10" stroke-width="8"/>
            <path d="M310.8,1599.86c27.55,16.3,57.09,19.49,81.2,18.1l35-59.3c-10.4-21.82-27.43-46.2-55-62.51-36.35-21.52-87.57-27-123-27.82a47.25,47.25,0,0,1-37.19-19.4c-5.81-8-12.51-15.49-19.52-19.64-20.74-12.28-38.63-9.23-46,3.23s-1.39,29.64,19.34,41.91c7,4.15,16.76,6.44,26.6,7.66a47.27,47.27,0,0,1,34.9,23.27C245,1536,274.45,1578.34,310.8,1599.86Z" fill="#fff"/>
            <path d="M361.92,1617a165.09,165.09,0,0,0,30.08,1l35-59.3a164.36,164.36,0,0,0-15.34-25.93Z" fill="#ee5450"/>
            <path d="M350.68,1615.58l54.31-92c-1.87-2.15-3.83-4.28-5.88-6.36l-56.84,96.3C345.08,1614.28,347.89,1615,350.68,1615.58Z" fill="#ee5450"/>
            <path d="M192.6,1482.14a46.33,46.33,0,0,1,13.8,4.09l15.87-26.89A46.35,46.35,0,0,1,212,1449.21Z" fill="#01838f"/>
            <path d="M213.56,1490.45a47.67,47.67,0,0,1,10.31,10l19.26-32.64a47.93,47.93,0,0,1-13.72-4.22Z" fill="#01838f"/>
            <path d="M234.36,1493.16a47.24,47.24,0,0,0-34.9-23.27c-9.83-1.22-19.59-3.51-26.6-7.66-17.21-10.19-24.24-23.76-21.92-35.2a21.52,21.52,0,0,0-4.62,5.49c-7.36,12.47-1.39,29.64,19.34,41.91,7,4.15,16.76,6.44,26.6,7.66a47.27,47.27,0,0,1,34.9,23.27c17.84,30.66,47.29,73,83.64,94.5,27.55,16.3,57.09,19.49,81.2,18.1l7.2-12.21c-24.11,1.4-53.65-1.79-81.2-18.09C281.65,1566.14,252.2,1523.81,234.36,1493.16Z" fill="#edeff0" style="mix-blend-mode: multiply"/>
            <path d="M310.8,1599.86c27.55,16.3,57.09,19.49,81.2,18.1l35-59.3c-10.4-21.82-27.43-46.2-55-62.51-36.35-21.52-87.57-27-123-27.82a47.25,47.25,0,0,1-37.19-19.4c-5.81-8-12.51-15.49-19.52-19.64-20.74-12.28-38.63-9.23-46,3.23s-1.39,29.64,19.34,41.91c7,4.15,16.76,6.44,26.6,7.66a47.27,47.27,0,0,1,34.9,23.27C245,1536,274.45,1578.34,310.8,1599.86Z" fill="none" stroke="#37474f" stroke-miterlimit="10" stroke-width="3"/>
            <path d="M166.49,1916.19h13.42c1-9.77,1.76-20.17,2-31.15a4.34,4.34,0,0,1,7.71-2.65,98,98,0,0,0,51.44,33.8h56.9c.93-.4,1.87-.79,2.8-1.16,34-9.78,66.35-34.42,87.47-70.57,38.89-66.56,25.33-147.2-30.23-179.76s-132.41-4.91-171.3,61.65c-21.11,36.12-26.73,76.38-18.61,110.87C171.24,1862.25,169.49,1891.27,166.49,1916.19Zm30.65-183.71c35.51-60.78,104.91-86.48,154.71-57.3s61.4,102.37,25.89,163.15-104.92,86.48-154.71,57.3S161.62,1793.26,197.14,1732.48Z" fill="#434343" stroke="#fff" stroke-miterlimit="10" stroke-width="5"/>
            <g>
              <g>
                <g>
                  <g>
                    <path d="M188.06,1727.17l3.14-5.41c-1.18,1.41-2.31,2.87-3.38,4.42a101.75,101.75,0,0,0-10,18.31Z" fill="#fff"/>
                    <path d="M209.53,1739.75l26-44.87,12.37-21.6q-1.92,1.44-3.79,2.88-5.06,8.47-10.49,17.6l-26.32,44.69-26,44.87-14.57,25.43c0,1.09,0,2.17.06,3.25,5.1-8.54,10.62-17.82,16.43-27.55C191.62,1770.18,200.57,1755,209.53,1739.75Z" fill="#fff"/>
                    <path d="M255.23,1706.41l-13.07,21.92L228.79,1751l-13.22,22.79L202.89,1796c-8.2,14.38-15.76,27.86-22.16,39.46-3.15,5.68-6,10.91-8.51,15.57a14.7,14.7,0,0,1,.48,2.87c3.12-4.94,6.7-10.63,10.57-16.95,7-11.26,15-24.46,23.51-38.67l13.06-21.92,13.37-22.7,13.22-22.8,12.68-22.14c8.2-14.39,15.75-27.87,22.15-39.47,3-5.33,5.66-10.27,8.06-14.72l-.26-.06a4.79,4.79,0,0,1-1.59-.74c-2.66,4.23-5.6,8.93-8.74,14C271.77,1679,263.74,1692.21,255.23,1706.41Z" fill="#fff"/>
                    <path d="M205.85,1850.15c7-11.26,15-24.46,23.5-38.67l13.07-21.92,13.36-22.7,13.22-22.8,12.69-22.14c8.19-14.39,15.75-27.87,22.15-39.47,5.2-9.36,9.57-17.53,13-23.9l-1.43-.15c-3.81,6-8.66,13.69-14.11,22.57-7,11.27-15,24.47-23.51,38.67l-13.06,21.92-13.37,22.71-13.22,22.79-12.69,22.14c-8.2,14.38-15.76,27.86-22.15,39.46S191.71,1870,188,1876.79l-3,5.62.37.3q1.44-2.24,3.47-5.42C193,1870.73,198.92,1861.44,205.85,1850.15Z" fill="#fff"/>
                    <path d="M228.42,1863.38c7-11.26,15-24.47,23.51-38.67,4.23-7.11,8.61-14.45,13.06-21.92l13.37-22.71c4.43-7.63,8.86-15.27,13.21-22.79l12.69-22.14c8.19-14.39,15.75-27.87,22.15-39.47s11.6-21.34,15.31-28.12l2.46-4.63-.57-.15-2.75,4.28c-4.08,6.56-10.05,15.85-17,27.14s-15,24.47-23.5,38.67l-13.07,21.92-13.37,22.7-13.22,22.8L248,1822.43c-8.19,14.38-15.75,27.86-22.15,39.46s-11.6,21.35-15.3,28.13c-1.7,3.2-3.05,5.75-4,7.56l.25.15,4.63-7.21C215.52,1884,221.49,1874.67,228.42,1863.38Z" fill="#fff"/>
                    <path d="M364.29,1680.79l3.76-7.07-.28-.19c-1.09,1.69-2.54,4-4.33,6.76-4.09,6.56-10.05,15.85-17,27.14s-15,24.47-23.51,38.67L309.88,1768l-13.37,22.7-13.22,22.8-12.68,22.14c-8.2,14.38-15.76,27.86-22.15,39.46s-11.6,21.35-15.31,28.13l-3.63,6.84.33.15,4.16-6.49c4.09-6.56,10.06-15.85,17-27.14s15-24.47,23.5-38.67c4.24-7.11,8.62-14.45,13.06-21.92l13.37-22.71,13.22-22.79c4.32-7.54,8.57-15,12.68-22.15,8.2-14.38,15.76-27.86,22.15-39.46S360.59,1687.57,364.29,1680.79Z" fill="#fff"/>
                    <path d="M387.11,1693.57c-.21-.26-.41-.53-.63-.78l-.47.73c-4.08,6.56-10.05,15.85-17,27.14s-15,24.47-23.51,38.67c-4.23,7.11-8.61,14.46-13.06,21.92L319.09,1804l-13.22,22.8-12.69,22.14c-8.2,14.38-15.75,27.86-22.15,39.46-6.34,11.42-11.45,21.07-15.15,27.84h1.2c4.07-6.51,9.83-15.5,16.49-26.35,7-11.27,15-24.47,23.51-38.67,4.23-7.11,8.61-14.46,13.06-21.92l13.37-22.71,13.21-22.79,12.69-22.15c8.19-14.38,15.75-27.86,22.15-39.46s11.6-21.34,15.31-28.12Z" fill="#fff"/>
                    <path d="M296.14,1903.07c7-11.27,15-24.47,23.51-38.67l13.06-21.92,13.37-22.71L359.3,1797c4.32-7.54,8.57-15,12.68-22.15,8.2-14.38,15.75-27.86,22.15-39.46,2.65-4.76,5.08-9.21,7.28-13.28-.25-.9-.52-1.79-.8-2.67-2.73,4.34-5.76,9.18-9,14.47-7,11.27-15,24.47-23.5,38.67L355,1794.48l-13.37,22.7L328.44,1840l-12.68,22.14c-8.2,14.38-15.76,27.86-22.16,39.46q-3.51,6.33-6.5,11.86c.91-.06,1.83-.13,2.74-.21C291.82,1910.07,293.93,1906.68,296.14,1903.07Z" fill="#fff"/>
                    <path d="M365.34,1831.06l-26,44.87-18,31.43c.76-.22,1.52-.45,2.27-.69l17.66-29.62,26.31-44.69,26-44.87,12.4-21.65c0-1.22.08-2.44.1-3.66l-14.41,24.19Z" fill="#fff"/>
                    <path d="M387.1,1844.64a5.9,5.9,0,0,1,.75.1c1.47-3.27,2.88-6.58,4.17-9.94q-2.61,4.41-5.21,8.84l-.57,1Z" fill="#fff"/>
                  </g>
                  <g>
                    <path d="M273.27,1912.38,228.64,1886,183.83,1860l-11.15-6.41c0,.37.08.73.09,1.11s.29,1,.43,1.53l9.51,5.69,44.63,26.35,44.58,25.93c1.33-.08,2.67-.14,4-.2Z" fill="#fff"/>
                    <path d="M265.16,1875.7l-22.67-13.38-22.76-13.24-22.11-12.7c-10.82-6.18-21.13-12-30.51-17.24.09,1.39.19,2.79.31,4.18,8.62,5.28,18,11,27.93,17l21.89,13.08,22.67,13.39L262.67,1880l22.11,12.71c10.38,5.93,20.28,11.52,29.35,16.59,1.45-.35,2.89-.71,4.33-1.11l.33-.09c-9.62-5.93-20.34-12.45-31.73-19.29Z" fill="#fff"/>
                    <path d="M341.9,1891.59l-3-1.87c-11.25-7-24.43-15-38.61-23.54l-21.9-13.08-22.67-13.39-22.76-13.24-22.11-12.7c-14.36-8.21-27.82-15.78-39.41-22.18l-4-2.22c-.09,1-.16,2-.22,3.06l2.73,1.69c11.26,7,24.44,15,38.62,23.54l21.89,13.09,22.67,13.38,22.76,13.24L298,1870.08c14.36,8.21,27.82,15.78,39.4,22.18l2.61,1.45A5.77,5.77,0,0,1,341.9,1891.59Z" fill="#fff"/>
                    <path d="M359.23,1871.54c-2.28-1.42-4.65-2.9-7.14-4.43-11.25-7-24.43-15-38.61-23.54l-21.89-13.08-22.68-13.39-22.76-13.23L224,1791.16c-14.36-8.2-27.82-15.77-39.41-22.18-4.52-2.52-8.76-4.84-12.66-7-.19.72-.37,1.45-.55,2.18,3.61,2.27,7.53,4.73,11.74,7.31,11.25,7,24.43,15,38.61,23.54l21.89,13.09,22.67,13.39,22.76,13.24,22.11,12.7c14.36,8.21,27.82,15.78,39.4,22.18q4.06,2.26,7.8,4.31C358.67,1873.16,358.94,1872.35,359.23,1871.54Z" fill="#fff"/>
                    <path d="M370.79,1850.9c.64-.62,1.3-1.2,2-1.75q-3.57-2.24-7.48-4.65c-11.25-7-24.43-15-38.61-23.53l-21.89-13.09-22.68-13.38-22.76-13.24-22.11-12.7c-14.36-8.21-27.82-15.78-39.41-22.19-6.1-3.4-11.69-6.44-16.62-9.11-.28.55-.55,1.11-.82,1.67,4.7,3,10.06,6.34,16,10,11.25,7,24.43,15,38.61,23.54l21.89,13.08,22.67,13.39,22.76,13.24,22.11,12.7c14.36,8.21,27.82,15.78,39.4,22.19C366.23,1848.4,368.54,1849.67,370.79,1850.9Z" fill="#fff"/>
                    <path d="M378.51,1821.9c-11.25-7-24.43-15-38.61-23.54L318,1785.28l-22.68-13.39-22.76-13.24L250.46,1746c-14.36-8.21-27.82-15.78-39.41-22.18-5.19-2.9-10-5.54-14.38-7.9l-1.46,1.46c4.31,2.72,9.12,5.74,14.37,9,11.25,7,24.43,15,38.61,23.54l21.89,13.08,22.67,13.39,22.76,13.24,22.11,12.71c14.36,8.21,27.82,15.78,39.4,22.18,5.71,3.18,11,6,15.66,8.59.23-.61.47-1.23.69-1.85C388.94,1828.38,384,1825.25,378.51,1821.9Z" fill="#fff"/>
                    <path d="M391.72,1799.29c-11.25-7-24.43-15-38.61-23.54l-21.89-13.08-22.68-13.39-22.76-13.23-22.11-12.71c-14.36-8.2-27.82-15.77-39.4-22.18l-6.39-3.53-2.06,1.74,7,4.32c11.25,7,24.43,15,38.61,23.54l21.89,13.09L306,1753.71l22.76,13.23,22.11,12.71c14.36,8.21,27.82,15.78,39.4,22.18q5.34,3,10.12,5.58c.19-.8.36-1.61.54-2.42Q396.57,1802.28,391.72,1799.29Z" fill="#fff"/>
                    <path d="M404.94,1780.06c.11-1,.22-2.11.32-3.18l-.33-.2c-11.25-7-24.43-15-38.61-23.54l-21.89-13.08-22.67-13.39L299,1713.44l-22.11-12.7c-13.51-7.72-26.19-14.86-37.29-21-.85.67-1.7,1.34-2.54,2,11,6.82,23.81,14.62,37.56,22.89l21.89,13.08,22.67,13.39,22.76,13.24L364,1757c14.36,8.21,27.82,15.78,39.4,22.19Z" fill="#fff"/>
                    <path d="M287.82,1682l21.89,13.08,22.67,13.39,22.76,13.24,22.11,12.71c10.12,5.78,19.77,11.23,28.65,16.2-.07-1.43-.17-2.85-.28-4.28-8.11-5-16.88-10.29-26.09-15.82l-21.89-13.08L335,1704.07l-22.76-13.24-22.12-12.7c-9.54-5.45-18.67-10.61-27.13-15.35-1.1.71-2.2,1.42-3.29,2.15C268.35,1670.26,277.83,1676,287.82,1682Z" fill="#fff"/>
                    <path d="M347.53,1682.57,303.65,1657c-1.94-.25-3.86-.53-5.78-.85l3.74,2.24,44.63,26.35,44.8,26.06,8.27,4.75c-.39-1-.79-2.09-1.21-3.12l-5.94-3.55Z" fill="#fff"/>
                  </g>
                </g>
                <path d="M358.67,1873.15c4.07-12,10.14-25,22-27.93.79-1.26,1.56-2.53,2.32-3.83,37.26-63.77,24.7-140.53-28.06-171.45a93.22,93.22,0,0,0-22.28-9.4c-9.45-1.51-19.16-2.21-28.66-3.45-18.92.47-38.19,6.09-56.06,16.2q-2.88,2.16-5.66,4.31c-10.35,8-20.26,16.61-30.29,25l-1.76,1.47a160.49,160.49,0,0,0-18.3,25.33C154.64,1793.19,167.2,1870,220,1900.87,262.85,1926,319.11,1913.11,358.67,1873.15Z" fill="none"/>
              </g>
              <path d="M166.49,1916.19h13.42c1-9.77,1.76-20.17,2-31.15a4.34,4.34,0,0,1,7.71-2.65,98,98,0,0,0,51.44,33.8h56.9c.93-.4,1.87-.79,2.8-1.16,34-9.78,66.35-34.42,87.47-70.57,38.89-66.56,25.33-147.2-30.23-179.76s-132.41-4.91-171.3,61.65c-21.11,36.12-26.73,76.38-18.61,110.87C171.24,1862.25,169.49,1891.27,166.49,1916.19Zm30.65-183.71c35.51-60.78,104.91-86.48,154.71-57.3s61.4,102.37,25.89,163.15-104.92,86.48-154.71,57.3S161.62,1793.26,197.14,1732.48Z" fill="#ee5450"/>
            </g>
            <path d="M1127.48,1597l-25.25-14.78c-2.49-1.45-5.48-1-6.65,1l-12,14c-1.16,2-.08,4.82,2.41,6.28l3.14,1.84-7,12c-32-2.93-77.26,31-92.93,57.85l-18.61,31.89a8.22,8.22,0,0,0-9.77,3.6l-.18.32a8.23,8.23,0,0,0,1.66,10.29l-4.23,7.26a8.21,8.21,0,0,0-9.77,3.6l-.19.32a8.24,8.24,0,0,0,1.66,10.29l-4.23,7.25a8.21,8.21,0,0,0-9.77,3.6l-.19.33a8.24,8.24,0,0,0,1.66,10.29l-4.23,7.25a8.21,8.21,0,0,0-9.77,3.6l-.19.32a8.25,8.25,0,0,0,1.67,10.3l-4.24,7.25a8.22,8.22,0,0,0-9.77,3.6l-.18.32a8.23,8.23,0,0,0,1.66,10.29l-4.23,7.26a8.21,8.21,0,0,0-9.77,3.6l-.19.32a8.24,8.24,0,0,0,1.66,10.29l-4.23,7.25a8.21,8.21,0,0,0-9.77,3.61l-.19.32a8.23,8.23,0,0,0,1.67,10.29l-4.24,7.25a8.22,8.22,0,0,0-9.77,3.6l-.18.32a8.24,8.24,0,0,0,1.66,10.3l-4.23,7.25a8.21,8.21,0,0,0-9.77,3.6l-.19.32a8.24,8.24,0,0,0,1.66,10.29L856,1903.43a19.76,19.76,0,0,0-2.49,12.76H1000l0,0,.16,0h5.08a9.76,9.76,0,0,0,1.52-.67,8.09,8.09,0,0,0,3-3l.19-.32.06-.12a8,8,0,0,0,.93-2.58,8.37,8.37,0,0,0,0-2.78,8.23,8.23,0,0,0-2.66-4.81l4.23-7.26a8.14,8.14,0,0,0,3.16.42,8.38,8.38,0,0,0,2.33-.46,8.08,8.08,0,0,0,4.28-3.56l.19-.32a8.23,8.23,0,0,0-1.66-10.29l4.23-7.25a8.21,8.21,0,0,0,9.69-3.5.87.87,0,0,1,.08-.1l.19-.33a8.35,8.35,0,0,0,.91-2.4,7.61,7.61,0,0,0,.08-3.08,8.34,8.34,0,0,0-.75-2.26,8.11,8.11,0,0,0-1.62-2.25,4.11,4.11,0,0,0-.29-.3l4.24-7.25a8.21,8.21,0,0,0,5.49,0,8.35,8.35,0,0,0,2.41-1.37,8.07,8.07,0,0,0,1.86-2.19l.19-.32h0a8.17,8.17,0,0,0,1-2.7,8.37,8.37,0,0,0,0-2.78,8.12,8.12,0,0,0-.75-2.26,9.15,9.15,0,0,0-.55-1,7.84,7.84,0,0,0-.66-.86,8.16,8.16,0,0,0-.7-.74l4.23-7.25a8.21,8.21,0,0,0,5.49,0,8.55,8.55,0,0,0,1.27-.58,8.11,8.11,0,0,0,3-3l.19-.32a8.32,8.32,0,0,0,.25-7.74,7.63,7.63,0,0,0-.56-.95,7.91,7.91,0,0,0-1.35-1.6l4.23-7.26a8.21,8.21,0,0,0,5.49,0,8.08,8.08,0,0,0,2.42-1.37,8.25,8.25,0,0,0,1.86-2.19l.19-.32a8.32,8.32,0,0,0,1-2.7,8.31,8.31,0,0,0-2.66-7.59l4.24-7.25a8.21,8.21,0,0,0,9.77-3.61h0l.18-.32a.67.67,0,0,0,.06-.12,7.84,7.84,0,0,0,.83-2.2,8.35,8.35,0,0,0-2.55-8l18.61-31.89c15.67-26.85,23-83,4.71-109.47l7-12,3.14,1.84c2.49,1.46,5.48,1,6.65-1l6.29-17.36C1131.05,1601.24,1130,1598.42,1127.48,1597Z" fill="#fff" stroke="#fff" stroke-miterlimit="10" stroke-width="5"/>
            <g>
              <g>
                <polygon points="1086.23 1667 1061.54 1652.56 1095 1595.22 1119.68 1609.67 1086.23 1667" fill="#398f4c"/>
                <polygon points="990.16 1916.18 1105.71 1718.17 1010.3 1662.34 862.17 1916.18 990.16 1916.18" fill="#01838f"/>
                <path d="M1096.16,1621.61h0c-31.05-18.17-88.83,22.45-107,53.55l-18.61,31.89a8.22,8.22,0,0,0-9.77,3.6l-.18.32a8.23,8.23,0,0,0,1.66,10.29l-4.23,7.26a8.21,8.21,0,0,0-9.77,3.6l-.19.32a8.24,8.24,0,0,0,1.66,10.29l-4.23,7.25a8.21,8.21,0,0,0-9.77,3.6l-.19.33a8.24,8.24,0,0,0,1.66,10.29l-4.23,7.25a8.21,8.21,0,0,0-9.77,3.6l-.19.32a8.25,8.25,0,0,0,1.67,10.3l-4.24,7.25a8.22,8.22,0,0,0-9.77,3.6l-.18.32a8.23,8.23,0,0,0,1.66,10.29l-4.23,7.26a8.21,8.21,0,0,0-9.77,3.6l-.19.32a8.24,8.24,0,0,0,1.66,10.29l-4.23,7.26a8.19,8.19,0,0,0-9.77,3.6l-.19.32a8.23,8.23,0,0,0,1.67,10.29l-4.24,7.25a8.22,8.22,0,0,0-9.77,3.6l-.18.32a8.24,8.24,0,0,0,1.66,10.3l-4.23,7.25a8.21,8.21,0,0,0-9.77,3.6l-.19.32a8.24,8.24,0,0,0,1.66,10.29L856,1903.43a19.76,19.76,0,0,0-2.49,12.76h25.3a9.13,9.13,0,0,1-2.7-12.07l60.85-104.28s16.74,2.81,28.14,12.46c8.26,7,18.91,23.86,26.18,28.11,15,8.8,28,7.61,28,7.61l-39.78,68.17H1000l0,0,.15,0h5.08a8.14,8.14,0,0,0,4.54-3.65l.19-.32a8.24,8.24,0,0,0-1.66-10.29l4.23-7.26a8.21,8.21,0,0,0,9.77-3.6l.19-.32a8.24,8.24,0,0,0-1.66-10.29l4.23-7.25a8.21,8.21,0,0,0,9.77-3.6l.19-.33a8.23,8.23,0,0,0-1.67-10.29l4.24-7.25a8.21,8.21,0,0,0,9.76-3.6l.19-.32a8.24,8.24,0,0,0-1.66-10.3l4.23-7.25a8.21,8.21,0,0,0,9.77-3.6l.19-.32a8.24,8.24,0,0,0-1.66-10.29l4.23-7.26a8.21,8.21,0,0,0,9.77-3.6l.19-.32a8.23,8.23,0,0,0-1.67-10.29l4.24-7.25a8.21,8.21,0,0,0,9.77-3.61l.18-.32a8.23,8.23,0,0,0-1.66-10.29l18.61-31.89C1120.23,1710.14,1127.21,1639.78,1096.16,1621.61Z" fill="#7bb353"/>
                <path d="M1086,1603.46l31,18.12c2.49,1.46,5.48,1,6.65-1l6.29-17.36c1.17-2,.08-4.82-2.4-6.28l-25.25-14.78c-2.49-1.45-5.48-1-6.65,1l-12,14C1082.41,1599.18,1083.49,1602,1086,1603.46Z" fill="#434343"/>
                <path d="M996.93,1797.92l62.63-71.82-25.76-1.61,27.94-32-22.3.2-43.28,49.64L1022,1744l-26.12,53.22A.63.63,0,0,0,996.93,1797.92Z" fill="#01838f"/>
              </g>
              <path d="M1096.16,1621.61h0l-119.05,204-52.85,90.57H1000l0,0,.15,0h5.07a8.16,8.16,0,0,0,4.55-3.65l.19-.32a8.24,8.24,0,0,0-1.66-10.29l4.23-7.26a8.21,8.21,0,0,0,9.77-3.6l.19-.32a8.24,8.24,0,0,0-1.66-10.29l4.23-7.25a8.21,8.21,0,0,0,9.77-3.6l.19-.33a8.23,8.23,0,0,0-1.67-10.29l4.24-7.25a8.21,8.21,0,0,0,9.76-3.6l.19-.32a8.24,8.24,0,0,0-1.66-10.3l4.23-7.25a8.21,8.21,0,0,0,9.77-3.6l.19-.32a8.24,8.24,0,0,0-1.66-10.29l4.23-7.26a8.21,8.21,0,0,0,9.77-3.6l.19-.32a8.23,8.23,0,0,0-1.67-10.29l4.24-7.25a8.21,8.21,0,0,0,9.77-3.61l.18-.32a8.23,8.23,0,0,0-1.66-10.29l18.61-31.89C1120.23,1710.14,1127.21,1639.78,1096.16,1621.61Z" fill="#fff" opacity="0.31" style="mix-blend-mode: overlay"/>
            </g>
            <path d="M116,1238.44c113.19,150.08,292.83,247.08,495.11,247.08s381.93-97,495.12-247.08Z" fill="#57cadc" opacity="0.74"/>
            <path d="M113.58,1238.44c113.56,144,289.44,236.43,486.89,236.43s373.33-92.43,486.89-236.43Z" fill="#e2f4f7" opacity="0.74"/>
            <path d="M230.54,1238.44c95.88,92.52,226.27,149.42,369.93,149.42s274-56.9,369.93-149.42Z" fill="none" opacity="0.74"/>
          </g>
        </g>
      </g>
    </g>
  </g>
</svg>
