<svg xmlns="http://www.w3.org/2000/svg" viewBox="0 0 122.73 122.73">
  <title>Pr4Grp3UclSportBackMenuBtnFichier 4</title>
  <g id="Calque_2" data-name="Calque 2">
    <g id="Calque_1-2" data-name="Calque 1">
      <path d="M0,61.36a61.37,61.37,0,1,1,61.36,61.37A61.36,61.36,0,0,1,0,61.36" style="fill: #51a989"/>
      <path d="M44.83,95.53c6,9.43,20.76,10,27.25,4.44a2.64,2.64,0,0,1-.3-.18,4.52,4.52,0,0,1-.56-.63,1.15,1.15,0,0,1,.08-1.7,1.56,1.56,0,0,1,.75-.34c1.65-.31,5-.81,5.62.1.72,1.11-.4,3.83-1,5.43-.28.76-.8,1.29-1.6,1-.44-.15-.73-.74-1.18-1.24-1.35.58-1.9,1.15-3.47,1.84-6.2,2.82-11.87,2-17.79-.86a15.43,15.43,0,0,1-6.22-5.19C45.85,97.34,45.36,96.43,44.83,95.53Z" style="fill: #fff"/>
      <path d="M40.17,31.79c-11.17-.08-19.68,12-18.53,20.48a1.15,1.15,0,0,1,.31-.16,4.64,4.64,0,0,1,.84-.13c1,0,1.31.53,1.38,1a1.77,1.77,0,0,1-.12.82c-.64,1.55-2.06,4.65-3.14,4.66-1.32,0-3-2.42-4-3.78-.48-.65-.65-1.37,0-1.89.37-.29,1-.21,1.68-.32.25-1.45.07-2.22.34-3.91,1-6.74,4.79-11,10.4-14.47a15.37,15.37,0,0,1,7.73-2.4C38.1,31.67,39.14,31.75,40.17,31.79Z" style="fill: #fff"/>
      <path d="M99.07,58.68c4-10.44-4.38-22.62-12.73-24.5a2.35,2.35,0,0,1,0,.35,4.22,4.22,0,0,1-.18.82c-.32,1-1,1.06-1.4.95a1.62,1.62,0,0,1-.73-.39c-1.23-1.14-3.65-3.55-3.27-4.57.45-1.24,3.31-2,4.94-2.45.78-.23,1.51-.13,1.77.68.14.44-.16,1-.29,1.68,1.27.74,2,.85,3.54,1.69,6,3.29,8.69,8.34,9.95,14.78a15.4,15.4,0,0,1-.45,8.09C99.91,56.78,99.47,57.73,99.07,58.68Z" style="fill: #fff"/>
      <g>
        <g>
          <path d="M69.58,26.83c0,.16,0,.32,0,.47s0,.31,0,.47-.06.45-.1.68a6.2,6.2,0,0,1-.16.72,8.23,8.23,0,0,1-.46,1.32c0,.06,0,.12-.08.19s-.21.42-.32.62l-.11.18a8.77,8.77,0,0,1-1.54,1.94l-.18.16-.3.27-.21.17c-.16.12-.31.23-.48.34l-.07,0a7.23,7.23,0,0,1-.66.4c-.21.12-.42.22-.63.32l0,0a8.26,8.26,0,0,1-1.32.47l-.29.07a8.28,8.28,0,0,1-1.41.22l-.46,0h-.47l-.47,0a8.28,8.28,0,0,1-1.41-.22l-.29-.07a8.26,8.26,0,0,1-1.32-.47l0,0c-.19-.09-.38-.18-.56-.28s-.5-.28-.73-.44l-.07,0c-.17-.11-.32-.22-.48-.34l-.21-.17-.3-.27L54,33.27a9.33,9.33,0,0,1-1.39-1.79l-.11-.18c-.11-.2-.22-.41-.32-.62a1.08,1.08,0,0,0-.08-.19,8.23,8.23,0,0,1-.46-1.32c-.06-.24-.12-.48-.16-.72s-.07-.45-.1-.68l0-.47c0-.15,0-.31,0-.47s0-.31,0-.46a2.93,2.93,0,0,0,.05-.29h0a1.09,1.09,0,0,1,0-.18s0-.11,0-.17,0-.34.06-.51.1-.48.16-.72a9.34,9.34,0,0,1,.46-1.32.36.36,0,0,0,0-.09l0-.1c.1-.21.21-.42.32-.62l.11-.18a9.07,9.07,0,0,1,1.54-1.94l.18-.16.3-.27.21-.17c.16-.12.31-.23.48-.34l.07,0a10.13,10.13,0,0,1,1.29-.72l0,0a8.26,8.26,0,0,1,1.32-.47l.29-.07a8.28,8.28,0,0,1,1.41-.22c.15,0,.31,0,.47,0h.47c.15,0,.31,0,.46,0a8.28,8.28,0,0,1,1.41.22l.29.07a8.26,8.26,0,0,1,1.32.47l0,0a10.13,10.13,0,0,1,1.29.72l.07,0c.17.11.32.22.48.34l.21.17.3.27a1.29,1.29,0,0,1,.17.16,8.82,8.82,0,0,1,1.55,1.94l.11.18c.11.2.22.41.32.62s0,.13.08.19a8.23,8.23,0,0,1,.46,1.32,6.2,6.2,0,0,1,.16.72c0,.23.07.45.1.68s0,.15,0,.22,0,.16,0,.25S69.58,26.68,69.58,26.83Z" style="fill: #fff"/>
          <path d="M51.39,26.08h0ZM51.23,26l0,0,.14.07s0,0,0,0Z" style="fill: #fff"/>
          <path d="M51.23,26l.13.07-.11,0Z" style="fill: #fff"/>
          <polygon points="51.4 26.08 51.4 26.08 51.4 26.08 51.39 26.08 51.4 26.08" style="fill: #fff"/>
        </g>
        <path d="M75.52,44.65v9.43c0,.2,0,.23-.18.23H45.6c-.19,0-.35,0-.35-.23V44.65c0-.15,0-.3,0-.45a9.17,9.17,0,0,1,2.41-5.81l.12-.13a8.74,8.74,0,0,1,2.43-1.79l.16-.08c.25-.12.51-.22.77-.32l.17-.06.72-.2a10.06,10.06,0,0,0,.92.81,12.58,12.58,0,0,0,2.66,1.59l.54.22a11.36,11.36,0,0,0,2.14.61,12.16,12.16,0,0,0,4.65,0,1.59,1.59,0,0,1,.3-.06h.45a3.61,3.61,0,0,0,1.17-.46c.15-.06.3-.2.45-.26a10.78,10.78,0,0,0,2.1-1.27h0a.44.44,0,0,0,.22-.12,13.31,13.31,0,0,0,1.23-1,8.91,8.91,0,0,1,6.7,8.39C75.57,44.34,75.52,44.5,75.52,44.65Z" style="fill: #fff"/>
      </g>
      <g>
        <g>
          <path d="M45.57,62.84c0,.15,0,.31,0,.46l0,.47c0,.23-.06.45-.1.68s-.1.48-.16.72a8.23,8.23,0,0,1-.46,1.32c0,.07-.06.13-.08.19s-.21.42-.32.62l-.11.18a8.82,8.82,0,0,1-1.55,1.94,1.29,1.29,0,0,1-.17.16,4,4,0,0,1-.31.27l-.2.17-.48.34-.07,0a7.23,7.23,0,0,1-.66.4c-.21.12-.42.22-.63.32l0,0a8.62,8.62,0,0,1-1.32.47l-.29.08a10.9,10.9,0,0,1-1.41.22l-.47,0h-.47l-.46,0a10.9,10.9,0,0,1-1.41-.22l-.29-.08a8.26,8.26,0,0,1-1.32-.47l0,0-.57-.28a6.59,6.59,0,0,1-.72-.44.18.18,0,0,1-.07,0c-.17-.11-.32-.22-.48-.34l-.21-.17c-.1-.09-.2-.17-.3-.27L30,69.27a8.67,8.67,0,0,1-1.39-1.79l-.11-.18c-.11-.2-.22-.41-.32-.62s-.05-.12-.08-.19a8.23,8.23,0,0,1-.46-1.32,6.2,6.2,0,0,1-.16-.72c0-.23-.08-.45-.1-.68s0-.31,0-.47,0-.31,0-.46,0-.32,0-.47,0-.19,0-.29h0c0-.06,0-.12,0-.17l0-.18c0-.17.05-.34.08-.51a6.2,6.2,0,0,1,.16-.72,8.59,8.59,0,0,1,.46-1.32l0-.09,0-.09c.1-.22.21-.42.32-.63l.11-.18a9,9,0,0,1,1.54-1.94l.18-.16.3-.27.21-.16c.16-.12.31-.24.48-.35l.07-.05a10.13,10.13,0,0,1,1.29-.72l0,0a9.37,9.37,0,0,1,1.32-.47l.29-.07a8.28,8.28,0,0,1,1.41-.22l.46,0h.47l.47,0a8.28,8.28,0,0,1,1.41.22l.29.07a9.84,9.84,0,0,1,1.32.47l0,0a10.13,10.13,0,0,1,1.29.72l.07.05.48.35.2.16.31.27a1.29,1.29,0,0,1,.17.16,8.82,8.82,0,0,1,1.55,1.94l.11.18c.11.21.22.41.32.63a1.42,1.42,0,0,0,.08.18,8.59,8.59,0,0,1,.46,1.32c.06.24.12.48.16.72s.07.46.1.69a1.49,1.49,0,0,0,0,.21c0,.08,0,.17,0,.25S45.57,62.68,45.57,62.84Z" style="fill: #fff"/>
          <path d="M27.39,62.08h0ZM27.23,62l0,0,.14.07,0,0Z" style="fill: #fff"/>
          <path d="M27.23,62l.13.07L27.25,62Z" style="fill: #fff"/>
          <polygon points="27.4 62.08 27.4 62.08 27.4 62.08 27.39 62.08 27.4 62.08" style="fill: #fff"/>
        </g>
        <path d="M51.7,80.66v9.42c0,.2-.17.21-.36.21H21.6c-.19,0-.42,0-.42-.21V80.66c0-.16,0-.31,0-.46a9.25,9.25,0,0,1,2.43-5.81l.13-.13a8.89,8.89,0,0,1,2.43-1.79l.17-.08a6.51,6.51,0,0,1,.77-.31l.17-.06a5.75,5.75,0,0,1,.71-.2c.3.28.61.55.93.8a12.58,12.58,0,0,0,2.66,1.59l.53.23a11.77,11.77,0,0,0,2.14.6,12.28,12.28,0,0,0,2.18.2A12.07,12.07,0,0,0,38.94,75a1.63,1.63,0,0,1,.3-.07h.45a3.58,3.58,0,0,0,1.17-.45c.15-.06.3-.2.45-.27a10.78,10.78,0,0,0,2.1-1.27h0a.36.36,0,0,0,.21-.11,11,11,0,0,0,1.24-1,9,9,0,0,1,6.79,8.4C51.65,80.34,51.7,80.5,51.7,80.66Z" style="fill: #fff"/>
      </g>
      <g>
        <g>
          <path d="M97.31,64.17c0,.16,0,.31,0,.47s0,.31,0,.46-.05.46-.09.68-.1.49-.16.72a8.74,8.74,0,0,1-.47,1.33,1.42,1.42,0,0,1-.08.18c-.1.21-.2.42-.32.62l-.1.18a9.43,9.43,0,0,1-1.55,2l-.17.16-.31.26-.21.17-.47.35-.07,0c-.22.15-.44.28-.67.41s-.41.22-.62.31l0,0A8.74,8.74,0,0,1,90.6,73l-.29.08a9.08,9.08,0,0,1-1.4.22l-.47,0H88l-.47,0A9.08,9.08,0,0,1,86.1,73L85.8,73a9,9,0,0,1-1.32-.47l0,0a5.85,5.85,0,0,1-.56-.28,7.85,7.85,0,0,1-.73-.44l-.07,0-.47-.35-.21-.17-.31-.26-.32-.31a9.06,9.06,0,0,1-1.4-1.8l-.1-.18c-.12-.2-.22-.41-.32-.62a1.42,1.42,0,0,1-.08-.18,8.74,8.74,0,0,1-.47-1.33c-.06-.23-.11-.47-.16-.72s-.07-.45-.09-.68,0-.31,0-.46,0-.31,0-.47S79,63.86,79,63.7s-.05-.19-.05-.28h0s.08-.11.09-.17,0-.12,0-.17.07-.34.1-.51.1-.49.16-.72a8.74,8.74,0,0,1,.47-1.33l0-.09,0-.09c.1-.21.2-.42.32-.62l.1-.18a9.43,9.43,0,0,1,1.55-2l.17-.16.31-.26.21-.17.47-.35.07,0a8.16,8.16,0,0,1,1.29-.72l0,0a9,9,0,0,1,1.32-.47l.3-.08a9.08,9.08,0,0,1,1.4-.22l.47,0h.47l.47,0a9.08,9.08,0,0,1,1.4.22l.29.08a8.74,8.74,0,0,1,1.33.47l0,0a8.16,8.16,0,0,1,1.29.72l.07,0,.47.35.21.17.31.26.17.16a9.18,9.18,0,0,1,1.55,2l.1.18c.12.2.22.41.32.62a1.42,1.42,0,0,1,.08.18A8.74,8.74,0,0,1,97,61.84c.06.23.11.47.16.72s.07.45.09.68a1.49,1.49,0,0,1,0,.21c0,.09,0,.17,0,.25S97.31,64,97.31,64.17Z" style="fill: #fff"/>
          <path d="M79.13,63.41h0ZM79,63.33h0a.6.6,0,0,0,.14.07l0,0Z" style="fill: #fff"/>
          <path d="M79,63.33l.14.06-.11,0Z" style="fill: #fff"/>
          <polygon points="79.14 63.41 79.14 63.42 79.13 63.42 79.13 63.41 79.14 63.41" style="fill: #fff"/>
        </g>
        <path d="M103.31,82v9.43c0,.19,0,.36-.23.36H73.33a.32.32,0,0,1-.29-.36V82c0-.15,0-.3,0-.45a9.17,9.17,0,0,1,2.4-5.81l.11-.14A8.89,8.89,0,0,1,78,73.8l.16-.08c.25-.11.5-.22.76-.31l.18-.06c.23-.08.47-.14.71-.2.3.28.61.55.93.8a12.55,12.55,0,0,0,2.65,1.6l.54.22a12.41,12.41,0,0,0,2.14.61,11.32,11.32,0,0,0,4.66-.11c.1,0,.2-.12.3-.12h.45a3.3,3.3,0,0,0,1.16-.41l.46-.16a10,10,0,0,0,2.09-1.17h0c.08,0,.15-.13.22-.18a13.76,13.76,0,0,0,1.24-1.07,8.94,8.94,0,0,1,6.72,8.38C103.33,81.69,103.31,81.84,103.31,82Z" style="fill: #fff"/>
      </g>
    </g>
  </g>
</svg>
