<svg xmlns="http://www.w3.org/2000/svg" viewBox="0 0 122.73 122.73">
  <title>Pr4Grp3UclSportBackMenuBtnFichier 5</title>
  <g id="Calque_2" data-name="Calque 2">
    <g id="Calque_1-2" data-name="Calque 1">
      <path d="M0,61.36a61.37,61.37,0,1,1,61.36,61.37A61.36,61.36,0,0,1,0,61.36" style="fill: #df9d40"/>
      <path d="M99.43,44.12V89.07a7.34,7.34,0,0,1-7.05,7.4h-62a7.38,7.38,0,0,1-7.09-7.4V44.12a6.78,6.78,0,0,1,7.09-6.7h6.81v4.07a5,5,0,1,0,9.92,0V37.42H75.61v4.07a5,5,0,1,0,9.92,0V37.42h6.85A6.75,6.75,0,0,1,99.43,44.12Z" style="fill: #fff"/>
      <rect x="29.2" y="57.81" width="64.32" height="32.01" style="fill: #df9d40"/>
      <rect x="38.14" y="29.87" width="7.77" height="15.08" rx="3.89" ry="3.89" style="fill: #fff"/>
      <rect x="76.68" y="29.87" width="7.77" height="15.08" rx="3.89" ry="3.89" style="fill: #fff"/>
      <g>
        <path d="M43.65,85.15V81.94l2.92-2.65c5-4.43,7.36-7,7.43-9.62,0-1.85-1.11-3.31-3.73-3.31a8.22,8.22,0,0,0-4.85,1.88l-1.5-3.8a12.56,12.56,0,0,1,7.43-2.34c5.13,0,7.95,3,7.95,7.11,0,3.81-2.75,6.84-6,9.77l-2.09,1.74v.07h8.54v4.36Z" style="fill: #fff"/>
        <path d="M78.13,66.84H69.34l-.48,3.49a9.66,9.66,0,0,1,1.46-.07,10.36,10.36,0,0,1,6,1.64A6.44,6.44,0,0,1,79,77.58c0,4.22-3.63,8-9.73,8A14.25,14.25,0,0,1,63,84.24l.94-4a13,13,0,0,0,5.13,1.11c2.19,0,4.53-1,4.53-3.45s-1.85-3.76-6.38-3.76a19.46,19.46,0,0,0-3.07.21l1.5-11.9H78.13Z" style="fill: #fff"/>
      </g>
    </g>
  </g>
</svg>
