<svg xmlns="http://www.w3.org/2000/svg" viewBox="0 0 122.73 122.73">
  <title>Pr4Grp3UclSportBackMenuBtnFichier 6</title>
  <g id="Calque_2" data-name="Calque 2">
    <g id="Calque_1-2" data-name="Calque 1">
      <circle cx="61.36" cy="61.36" r="61.36" style="fill: #5c64a8"/>
      <polygon points="25.67 30.02 37.33 41.68 32.58 46.43 60.49 59.01 47.97 31.04 42.9 36.11 31.23 24.45 25.67 30.02" style="fill: #fff"/>
      <polygon points="31.93 97.98 43.59 86.32 48.35 91.07 60.93 63.15 32.95 75.67 38.03 80.75 26.37 92.41 31.93 97.98" style="fill: #fff"/>
      <polygon points="100.2 92.15 88.55 80.49 93.3 75.74 65.38 63.15 77.9 91.13 82.98 86.05 94.64 97.71 100.2 92.15" style="fill: #fff"/>
      <polygon points="94.44 24.19 82.78 35.85 78.03 31.1 65.44 59.01 93.42 46.49 88.34 41.42 100 29.76 94.44 24.19" style="fill: #fff"/>
    </g>
  </g>
</svg>
