<svg xmlns="http://www.w3.org/2000/svg" viewBox="0 0 122.73 122.73">
  <title>Pr4Grp3UclSportBackMenuBtnFichier 7</title>
  <g id="Calque_2" data-name="Calque 2">
    <g id="Calque_1-2" data-name="Calque 1">
      <circle cx="61.36" cy="61.36" r="61.36" style="fill: #1a8ba5"/>
      <g>
        <g>
          <path d="M71,23c0,.15,0,.31,0,.47s0,.31,0,.46,0,.46-.09.68-.1.48-.16.72a9.94,9.94,0,0,1-.46,1.33l-.09.18c-.1.21-.2.42-.32.62l-.1.18a9.12,9.12,0,0,1-1.55,1.94l-.17.17a3.88,3.88,0,0,1-.31.26l-.21.17c-.15.12-.31.23-.47.34l-.07.05c-.22.15-.44.28-.66.41l-.63.31,0,0a9,9,0,0,1-1.32.47l-.29.08a10.9,10.9,0,0,1-1.41.22l-.47,0H61.7l-.46,0a10.38,10.38,0,0,1-1.41-.22l-.29-.08a8.74,8.74,0,0,1-1.33-.47l0,0L57.61,31a7.85,7.85,0,0,1-.73-.44l-.07-.05c-.16-.11-.32-.22-.47-.34L56.13,30l-.31-.26-.32-.31a9.06,9.06,0,0,1-1.4-1.8l-.1-.18c-.12-.2-.22-.41-.32-.62a1.42,1.42,0,0,1-.08-.18,8.74,8.74,0,0,1-.47-1.33c-.06-.24-.11-.48-.16-.72s-.07-.45-.09-.68,0-.31,0-.46,0-.32,0-.47,0-.32,0-.47a2.93,2.93,0,0,0,.05-.29h0a1,1,0,0,1,0-.17,1.08,1.08,0,0,1,0-.18c0-.17,0-.34.07-.5a5.93,5.93,0,0,1,.16-.73,8.59,8.59,0,0,1,.46-1.32.36.36,0,0,1,0-.09l0-.09c.1-.21.2-.42.32-.63l.1-.18a9.38,9.38,0,0,1,1.55-1.94l.17-.16.31-.27.21-.16.47-.35.07-.05a9.61,9.61,0,0,1,1.3-.72h0a10,10,0,0,1,1.33-.48l.29-.07a9,9,0,0,1,1.41-.22l.46,0h.47l.47,0a9.41,9.41,0,0,1,1.41.22l.29.07a10.41,10.41,0,0,1,1.32.48h0a10.13,10.13,0,0,1,1.29.72l.07.05.47.35.21.16.31.27.17.16a9.38,9.38,0,0,1,1.55,1.94l.1.18c.12.21.22.42.32.63l.09.18a9.8,9.8,0,0,1,.46,1.32c.06.24.11.48.16.73s.07.45.09.68a1.49,1.49,0,0,1,0,.21c0,.08,0,.17,0,.25S71,22.84,71,23Z" style="fill: #fff"/>
          <path d="M52.86,22.24h0Zm-.16-.08h0a.6.6,0,0,0,.14.07l0,0Z" style="fill: #fff"/>
          <path d="M52.7,22.16l.13.06-.11,0Z" style="fill: #fff"/>
          <polygon points="52.87 22.24 52.87 22.24 52.87 22.24 52.86 22.24 52.87 22.24" style="fill: #fff"/>
        </g>
        <path d="M77,40.82v9.42c0,.2,0,.24-.17.24H47.06c-.18,0-.35,0-.35-.24V40.82c0-.16,0-.31,0-.46a9.28,9.28,0,0,1,2.41-5.81c.05,0,.08-.09.13-.13a8.84,8.84,0,0,1,2.42-1.79l.17-.08a7.12,7.12,0,0,1,.76-.31l.18-.06a5.75,5.75,0,0,1,.71-.2c.3.28.61.55.93.8a12.51,12.51,0,0,0,2.65,1.59l.54.23a11.55,11.55,0,0,0,2.14.6,12.19,12.19,0,0,0,2.18.2,12.06,12.06,0,0,0,2.48-.25,1.59,1.59,0,0,1,.3-.06h.45a3.8,3.8,0,0,0,1.17-.46c.15-.06.3-.19.45-.26a10.85,10.85,0,0,0,2.09-1.26h0c.08,0,.15-.07.22-.12a12.09,12.09,0,0,0,1.24-1A8.92,8.92,0,0,1,77,40.35C77,40.5,77,40.66,77,40.82Z" style="fill: #fff"/>
      </g>
      <g>
        <g>
          <path d="M45.05,66c0,.15,0,.31,0,.47l0,.46c0,.23-.06.45-.1.68s-.1.48-.16.72a8.23,8.23,0,0,1-.46,1.32c0,.07-.06.13-.08.19s-.21.42-.32.62l-.11.18a8.77,8.77,0,0,1-1.54,1.94l-.18.17-.3.26-.21.17c-.16.12-.31.23-.48.34l-.07,0a7.31,7.31,0,0,1-.66.41l-.63.31,0,0a8.26,8.26,0,0,1-1.32.47l-.29.08a10.9,10.9,0,0,1-1.41.22l-.47,0h-.47l-.46,0a10.9,10.9,0,0,1-1.41-.22l-.29-.08a8.26,8.26,0,0,1-1.32-.47l0,0c-.19-.09-.38-.18-.56-.28a6.73,6.73,0,0,1-.73-.44.18.18,0,0,1-.07,0c-.17-.11-.32-.22-.48-.34L30.14,73l-.3-.26-.33-.31a9.4,9.4,0,0,1-1.39-1.8L28,70.41c-.11-.2-.22-.41-.32-.62s-.05-.12-.08-.19a8.23,8.23,0,0,1-.46-1.32,6.2,6.2,0,0,1-.16-.72c0-.23-.07-.45-.1-.68s0-.31,0-.46,0-.32,0-.47,0-.32,0-.47a2.81,2.81,0,0,0,0-.29h0a.86.86,0,0,1,0-.17,1.1,1.1,0,0,1,0-.18c0-.17.05-.34.08-.51a6.2,6.2,0,0,1,.16-.72,8.59,8.59,0,0,1,.46-1.32l0-.09,0-.09c.1-.22.21-.42.32-.63l.11-.18a9,9,0,0,1,1.54-1.94l.18-.16.3-.27.21-.16c.16-.12.31-.24.48-.35l.07-.05a10.13,10.13,0,0,1,1.29-.72l0,0a9.37,9.37,0,0,1,1.32-.47l.29-.07a9.41,9.41,0,0,1,1.41-.22l.46,0h.47l.47,0a9.41,9.41,0,0,1,1.41.22l.29.07a9.37,9.37,0,0,1,1.32.47l0,0a10.13,10.13,0,0,1,1.29.72l.07.05c.17.11.32.23.48.35l.21.16.3.27a1.29,1.29,0,0,1,.17.16,9.06,9.06,0,0,1,1.55,1.94l.11.18c.11.21.22.41.32.63a1.42,1.42,0,0,0,.08.18,8.59,8.59,0,0,1,.46,1.32c.06.24.12.48.16.72s.07.46.1.69c0,.07,0,.14,0,.21s0,.17,0,.25S45.05,65.79,45.05,66Z" style="fill: #fff"/>
          <path d="M26.87,65.19h0Zm-.16-.08h0c.05,0,.08,0,.14.07l0,0Z" style="fill: #fff"/>
          <path d="M26.71,65.11l.13.06-.11,0Z" style="fill: #fff"/>
          <polygon points="26.88 65.19 26.88 65.19 26.88 65.19 26.87 65.19 26.88 65.19" style="fill: #fff"/>
        </g>
        <path d="M51.18,83.77v9.42c0,.2-.17.21-.36.21H21.08c-.19,0-.42,0-.42-.21V83.77c0-.16,0-.31,0-.46a9.25,9.25,0,0,1,2.43-5.81l.13-.13a9,9,0,0,1,2.43-1.79l.17-.08a7.28,7.28,0,0,1,.77-.31l.17-.06a5.9,5.9,0,0,1,.72-.2,11.71,11.71,0,0,0,.92.8,12.58,12.58,0,0,0,2.66,1.59l.54.23a11.34,11.34,0,0,0,2.14.6,11.92,11.92,0,0,0,4.65-.06,1.63,1.63,0,0,1,.3-.07h.45a3.58,3.58,0,0,0,1.17-.45c.15-.06.3-.2.45-.27A10.78,10.78,0,0,0,42.89,76h0a.36.36,0,0,0,.21-.11,11,11,0,0,0,1.24-1,9,9,0,0,1,6.79,8.4C51.14,83.45,51.18,83.61,51.18,83.77Z" style="fill: #fff"/>
      </g>
      <g>
        <g>
          <path d="M96.29,65.79c0,.16,0,.31,0,.47l0,.46c0,.23-.06.46-.1.68s-.1.49-.16.73a9,9,0,0,1-.46,1.32,1.42,1.42,0,0,0-.08.18c-.1.21-.21.42-.32.62l-.11.19a9.06,9.06,0,0,1-1.55,1.94l-.17.16-.3.27-.21.16-.48.35-.07.05c-.21.14-.43.27-.66.4l-.63.32h0a9.4,9.4,0,0,1-1.32.48l-.29.07a9.41,9.41,0,0,1-1.41.22l-.47,0H87l-.46,0a9.41,9.41,0,0,1-1.41-.22l-.29-.07a9.4,9.4,0,0,1-1.32-.48h0l-.56-.28c-.25-.14-.5-.29-.73-.44l-.07-.05c-.17-.11-.32-.23-.48-.35l-.21-.16-.3-.27-.33-.31a9.24,9.24,0,0,1-1.39-1.79l-.11-.19c-.11-.2-.22-.41-.32-.62l-.08-.18a9,9,0,0,1-.46-1.32,5.93,5.93,0,0,1-.16-.73c0-.22-.08-.45-.1-.68s0-.3,0-.46,0-.31,0-.47-.06-.31,0-.47,0-.19,0-.28h0c0-.06.08-.12.08-.18s0-.11.06-.17.06-.34.09-.51.11-.49.17-.72a8.74,8.74,0,0,1,.47-1.33l0-.09,0-.09c.1-.21.21-.42.32-.62l.11-.18A9.07,9.07,0,0,1,80.9,59.2l.18-.16.3-.26.21-.17c.16-.12.31-.24.48-.35l.07,0a8.16,8.16,0,0,1,1.29-.72l0,0A8.26,8.26,0,0,1,84.79,57l.29-.08a9.41,9.41,0,0,1,1.41-.22l.46,0h.47l.47,0a9.41,9.41,0,0,1,1.41.22l.29.08a8.26,8.26,0,0,1,1.32.47l0,0a8.16,8.16,0,0,1,1.29.72l.07,0,.48.35.21.17.3.26.17.16A9.11,9.11,0,0,1,95,61.15l.11.18c.11.2.22.41.32.62a1.42,1.42,0,0,0,.08.18A8.71,8.71,0,0,1,96,63.46c.06.23.12.48.16.72s.07.45.1.68a1.8,1.8,0,0,0,0,.22c0,.08,0,.16,0,.24S96.29,65.63,96.29,65.79Z" style="fill: #fff"/>
          <path d="M78.11,65h0ZM78,65h0a.46.46,0,0,0,.14.07h0Z" style="fill: #fff"/>
          <path d="M78,65l.13.07L78,65Z" style="fill: #fff"/>
          <polygon points="78.12 65.04 78.12 65.04 78.12 65.04 78.11 65.03 78.12 65.04" style="fill: #fff"/>
        </g>
        <path d="M102.29,83.61V93c0,.19,0,.36-.23.36H72.32A.32.32,0,0,1,72,93V83.61c0-.15,0-.3,0-.45a9.2,9.2,0,0,1,2.4-5.81l.12-.14a8.61,8.61,0,0,1,2.42-1.78l.16-.08a7.35,7.35,0,0,1,.77-.32L78,75c.24-.08.47-.14.72-.2a11.71,11.71,0,0,0,.92.8,12.62,12.62,0,0,0,2.66,1.6l.54.22a11.15,11.15,0,0,0,6.79.5c.1,0,.2-.12.3-.12h.45a3.46,3.46,0,0,0,1.17-.4c.15-.06.3-.1.45-.17A10.31,10.31,0,0,0,94.13,76h0c.07,0,.14-.13.21-.18a11.46,11.46,0,0,0,1.24-1.07,8.93,8.93,0,0,1,6.72,8.39C102.31,83.31,102.29,83.46,102.29,83.61Z" style="fill: #fff"/>
      </g>
      <rect x="59.68" y="52.73" width="3.58" height="15.67" rx="1.79" ry="1.79" style="fill: #fff"/>
      <rect x="64.4" y="62.49" width="3.58" height="15.65" rx="1.79" ry="1.79" transform="translate(-30.05 78.28) rotate(-51.46)" style="fill: #fff"/>
      <rect x="54.31" y="62.49" width="3.58" height="15.65" rx="1.79" ry="1.79" transform="translate(76.15 -17.37) rotate(51.46)" style="fill: #fff"/>
    </g>
  </g>
</svg>
