<svg xmlns="http://www.w3.org/2000/svg" viewBox="0 0 200 199.98">
  <title>ic_navbar_position_btn_1</title>
  <g>
    <path d="M56.22,151.22a108,108,0,0,1,23-7.52c.84-.18,1.6-.33,2.28-.46a100.1,100.1,0,0,1,14.54-1.76V103.77H49.38A184.92,184.92,0,0,0,56.22,151.22Z" fill="#80d25b"/>
    <path d="M147.84,40.72c.95-.47,1.89-1,2.82-1.46.61-.33,1.25-.68,2-1.08a102.42,102.42,0,0,0,15.85-11.09A99.29,99.29,0,0,0,127.35,3.71,82,82,0,0,1,140.6,23.15,127,127,0,0,1,147.84,40.72Z" fill="#80d25b"/>
    <path d="M87.59.7C79,5.12,71,14.12,64.51,27.11A120,120,0,0,0,58.45,41.6a101.75,101.75,0,0,0,22.07,7.52c.7.16,1.41.3,2.17.45a98,98,0,0,0,13.38,1.68V0l-.76,0c-2.58.12-5.16.35-7.72.67" fill="#80d25b"/>
    <path d="M80.52,150.85a101.25,101.25,0,0,0-22.07,7.53,119.81,119.81,0,0,0,6.06,14.48c6.53,13,14.48,22,23.08,26.42,2.56.32,5.13.55,7.7.66a6.36,6.36,0,0,0,.78,0V148.72a98,98,0,0,0-13.38,1.68Z" fill="#80d25b"/>
    <path d="M79.24,56.27a107.87,107.87,0,0,1-23-7.66,185.06,185.06,0,0,0-6.84,47.71H96.07V58.5a100.37,100.37,0,0,1-14.55-1.77Z" fill="#80d25b"/>
    <path d="M50.57,45.8q-1.87-1-3.72-2.1c-.65-.37-1.31-.77-2-1.21a109.36,109.36,0,0,1-16.4-12.38A99.11,99.11,0,0,0,0,96.32H43.26A190.77,190.77,0,0,1,50.57,45.8Z" fill="#80d25b"/>
    <path d="M52.84,161.26c-.86.48-1.72,1-2.57,1.46l-1.91,1.16A103.93,103.93,0,0,0,33.63,175a99.62,99.62,0,0,0,39,21.28A82.25,82.25,0,0,1,59.4,176.83,125,125,0,0,1,52.84,161.26Z" fill="#80d25b"/>
    <path d="M46.86,156.19c1.22-.72,2.46-1.48,3.71-2.15a190.65,190.65,0,0,1-7.3-50.27H0a99.62,99.62,0,0,0,28.32,66,109.55,109.55,0,0,1,16.5-12.36C45.53,157,46.21,156.57,46.86,156.19Z" fill="#80d25b"/>
    <path d="M50.27,37.25c.85.5,1.71,1,2.57,1.46A124.88,124.88,0,0,1,59.4,23.15,82.07,82.07,0,0,1,72.63,3.73a99.53,99.53,0,0,0-38.9,21.35,103.49,103.49,0,0,0,14.63,11Z" fill="#80d25b"/>
    <path d="M150,152c1.3.63,2.59,1.44,3.87,2.12l2.06,1.13a109.34,109.34,0,0,1,17.78,12.36A98.81,98.81,0,0,0,200,103.77H156.73A191.17,191.17,0,0,1,150,152Z" fill="#80d25b"/>
    <path d="M119.66,50a101.42,101.42,0,0,0,22.49-6.61,121.31,121.31,0,0,0-6.66-16.24C129,14.12,121,5.12,112.34.7c-2.55-.32-5.2-.55-7.76-.67l-1.06,0V51.42a102.42,102.42,0,0,0,13.84-1.11C118.13,50.2,119,50.08,119.66,50Z" fill="#80d25b"/>
    <path d="M150.67,160.72c-.94-.51-1.88-1-2.83-1.46a127,127,0,0,1-7.24,17.57,82.55,82.55,0,0,1-13.25,19.44A99.65,99.65,0,0,0,168.58,173a103.38,103.38,0,0,0-16-11.19C151.91,161.39,151.27,161,150.67,160.72Z" fill="#80d25b"/>
    <path d="M155.92,44.7l-2,1.13c-1.28.68-2.57,1.34-3.87,2a195.71,195.71,0,0,1,6.74,48.52H200a99.84,99.84,0,0,0-26.39-64A109.77,109.77,0,0,1,155.92,44.7Z" fill="#80d25b"/>
    <path d="M144.24,50.37a108.43,108.43,0,0,1-23.58,6.76c-.66.12-1.46.23-2.35.36a116,116,0,0,1-14.79,1.16V96.32h47.1A186,186,0,0,0,144.24,50.37Z" fill="#80d25b"/>
    <path d="M120.74,142.77a108,108,0,0,1,23.54,6.7,186.53,186.53,0,0,0,6.34-45.7h-47.1v37.56a114,114,0,0,1,14.79,1.11C119.2,142.57,120.07,142.65,120.74,142.77Z" fill="#80d25b"/>
    <path d="M142.12,156.63A101.14,101.14,0,0,0,119.6,150c-.7-.13-1.47-.24-2.23-.35a102.57,102.57,0,0,0-13.85-1.11V200s.75,0,1,0c2.58-.11,5.22-.34,7.77-.66,8.61-4.42,16.61-13.43,23.14-26.42A121.16,121.16,0,0,0,142.12,156.63Z" fill="#80d25b"/>
  </g>
</svg>
