<svg xmlns="http://www.w3.org/2000/svg" viewBox="0 0 200 200">
  <title>ic_navbar_parametre_btn_1</title>
  <g>
    <path d="M200,116.88V83.12a5.34,5.34,0,0,0-5.34-5.34h-15a5.33,5.33,0,0,1-5-3.71,76.8,76.8,0,0,0-3.94-9.54,5.34,5.34,0,0,1,.94-6.17l10.59-10.59a5.35,5.35,0,0,0,0-7.55L159.78,17.77a5.35,5.35,0,0,0-7.55,0L141.64,28.36a5.32,5.32,0,0,1-6.16.94,77.57,77.57,0,0,0-9.55-3.94,5.33,5.33,0,0,1-3.71-5v-15A5.34,5.34,0,0,0,116.88,0H83.12a5.34,5.34,0,0,0-5.34,5.34v15a5.33,5.33,0,0,1-3.71,5,77.57,77.57,0,0,0-9.55,3.94,5.32,5.32,0,0,1-6.16-.94L47.77,17.77a5.35,5.35,0,0,0-7.55,0L17.77,40.22a5.35,5.35,0,0,0,0,7.55L28.36,58.36a5.34,5.34,0,0,1,.94,6.17,76.8,76.8,0,0,0-3.94,9.54,5.33,5.33,0,0,1-5,3.71h-15A5.34,5.34,0,0,0,0,83.12v33.76a5.34,5.34,0,0,0,5.34,5.34h15a5.33,5.33,0,0,1,5,3.71,78.31,78.31,0,0,0,3.93,9.54,5.34,5.34,0,0,1-.93,6.17L17.77,152.23a5.35,5.35,0,0,0,0,7.55l22.45,22.45a5.35,5.35,0,0,0,7.55,0l10.59-10.59a5.32,5.32,0,0,1,6.16-.94,77.57,77.57,0,0,0,9.55,3.94,5.33,5.33,0,0,1,3.71,5v15A5.34,5.34,0,0,0,83.12,200h33.76a5.34,5.34,0,0,0,5.34-5.34v-15a5.33,5.33,0,0,1,3.71-5,77.57,77.57,0,0,0,9.55-3.94,5.32,5.32,0,0,1,6.16.94l10.59,10.59a5.35,5.35,0,0,0,7.55,0l22.45-22.45a5.35,5.35,0,0,0,0-7.55l-10.59-10.59a5.34,5.34,0,0,1-.93-6.17,78.31,78.31,0,0,0,3.93-9.54,5.33,5.33,0,0,1,5-3.71h15A5.34,5.34,0,0,0,200,116.88Z" fill="#80d25b"/>
    <circle cx="100" cy="100" r="27.78" fill="#fff"/>
  </g>
</svg>
