<svg xmlns="http://www.w3.org/2000/svg" viewBox="0 0 200 241.35">
  <title>ic_navbar_profil_btn_2</title>
  <g>
    <g>
      <path d="M160.53,60.07c0,1,0,2.06-.08,3.09s-.13,2-.24,3c-.15,1.51-.36,3-.62,4.49s-.65,3.2-1.06,4.77a60.07,60.07,0,0,1-3.05,8.73c-.18.41-.36.81-.55,1.2q-1,2.1-2.11,4.11l-.69,1.2a60.56,60.56,0,0,1-10.21,12.82c-.37.35-.75.71-1.14,1.06-.66.6-1.34,1.18-2,1.75l-1.37,1.1c-1,.79-2.06,1.56-3.13,2.29l-.47.31c-1.42.95-2.87,1.84-4.38,2.66q-2,1.13-4.15,2.09l-.25.11a59,59,0,0,1-8.72,3.12c-.63.17-1.27.34-1.92.49a59.15,59.15,0,0,1-9.29,1.45c-1,.08-2,.13-3.07.16h-3.1c-1,0-2.06-.08-3.08-.16a59.15,59.15,0,0,1-9.29-1.45c-.65-.15-1.28-.32-1.92-.49a59,59,0,0,1-8.72-3.12l-.25-.11c-1.27-.58-2.51-1.19-3.72-1.85-1.65-.89-3.26-1.86-4.81-2.9l-.46-.31c-1.07-.73-2.12-1.5-3.14-2.29l-1.37-1.1c-.68-.57-1.36-1.15-2-1.75s-1.45-1.35-2.15-2a60.09,60.09,0,0,1-9.2-11.83l-.69-1.2c-.75-1.34-1.46-2.71-2.11-4.11q-.27-.59-.54-1.2a58.94,58.94,0,0,1-3.06-8.73c-.41-1.57-.77-3.16-1.06-4.77s-.47-3-.62-4.49c-.1-1-.18-2-.23-3s-.08-2.06-.08-3.09.2-2.07.26-3.09c0-.63.3-1.26.3-1.88h0a11.48,11.48,0,0,1-.07-1.17c0-.37,0-.75,0-1.13.13-1.13.25-2.25.45-3.36.29-1.61.62-3.2,1-4.76a59.4,59.4,0,0,1,3-8.74l.26-.6c.09-.2.18-.4.28-.6q1-2.1,2.1-4.11l.69-1.19A60.06,60.06,0,0,1,59,16.61c.37-.36.76-.71,1.14-1.06.66-.6,1.34-1.19,2-1.76.45-.37.9-.74,1.36-1.09,1-.8,2.07-1.56,3.14-2.29l.46-.32a60.06,60.06,0,0,1,8.53-4.74l.25-.12a60.2,60.2,0,0,1,8.72-3.12l1.92-.49A61.59,61.59,0,0,1,95.83.17c1-.07,2-.13,3.08-.15l1.55,0L102,0c1,0,2,.08,3.07.15a61.59,61.59,0,0,1,9.29,1.45l1.92.49A60.2,60.2,0,0,1,125,5.23l.25.12a59.52,59.52,0,0,1,8.53,4.74l.47.32c1.07.73,2.11,1.49,3.13,2.29.46.35.92.72,1.37,1.09.68.57,1.36,1.16,2,1.76.38.34.76.69,1.13,1.05a60.41,60.41,0,0,1,10.22,12.83l.69,1.19q1.14,2,2.11,4.11c.19.4.37.8.55,1.2a60.62,60.62,0,0,1,3.05,8.74c.41,1.56.77,3.15,1.06,4.76s.47,3,.62,4.49c0,.48.09.95.13,1.42s.08,1.09.11,1.64C160.5,58,160.53,59,160.53,60.07Z" fill="#ff6161"/>
      <path d="M40.58,55.07l0,0h0Zm-1.09-.55.16.08a6.11,6.11,0,0,0,.93.47l-.2-.12C40.12,54.8,39.78,54.66,39.49,54.52Z" fill="#ff6161"/>
      <path d="M39.49,54.52c.29.14.63.28.89.43-.22-.12-.48-.23-.73-.35Z" fill="#ff6161"/>
      <path d="M40.62,55.09h0l0,0Z" fill="#ff6161"/>
    </g>
    <path d="M199.74,177.63v62.2c0,1.27.06,1.52-1.16,1.52H2.33c-1.22,0-2.3-.25-2.3-1.52v-62.2c0-1-.06-2,0-3a60.82,60.82,0,0,1,15.91-38.33c.28-.29.53-.59.81-.88a57.9,57.9,0,0,1,16-11.8l1.08-.53c1.65-.77,3.33-1.47,5.05-2.08l1.16-.39q2.31-.76,4.71-1.32a80.09,80.09,0,0,0,6.09,5.29,82.86,82.86,0,0,0,17.54,10.52c1.17.52,2.36,1,3.55,1.47a77.94,77.94,0,0,0,14.12,4,80.66,80.66,0,0,0,30.71-.34,10,10,0,0,1,2-.4h3c2.59,0,5.16-2,7.68-3,1-.39,2-1.28,3-1.72a70.53,70.53,0,0,0,13.82-8.33h0c.48,0,1-.44,1.43-.79a81.91,81.91,0,0,0,8.17-6.79c24.63,5.74,42.89,28.29,44.16,55.4C200,175.57,199.74,176.63,199.74,177.63Z" fill="#ff6161"/>
  </g>
</svg>
