<svg xmlns="http://www.w3.org/2000/svg" viewBox="0 0 200 177.35">
  <title>ic_navbar_rdv_btn_1</title>
  <g>
    <path d="M200,39.92v118c0,10.25-8.25,19.44-18.5,19.44H18.59C8.34,177.35,0,168.16,0,157.91v-118C0,29.66,8.34,22.3,18.59,22.3H36.48V33a13,13,0,1,0,26.06,0V22.3h74.92V33a13,13,0,1,0,26.06,0V22.3h18C191.75,22.3,200,29.66,200,39.92Z" fill="#ffc043"/>
    <rect x="15.61" y="75.86" width="168.87" height="84.04" fill="#fff"/>
    <rect x="39.09" y="2.5" width="20.4" height="39.6" rx="10.2" ry="10.2" fill="none" stroke="#ffc043" stroke-linecap="round" stroke-linejoin="round" stroke-width="5"/>
    <rect x="140.27" y="2.5" width="20.4" height="39.6" rx="10.2" ry="10.2" fill="none" stroke="#ffc043" stroke-linecap="round" stroke-linejoin="round" stroke-width="5"/>
    <g>
      <path d="M53.54,147.63v-8.42l7.69-7c13-11.63,19.32-18.31,19.5-25.27,0-4.85-2.93-8.7-9.8-8.7-5.12,0-9.61,2.57-12.72,5l-3.94-10a32.93,32.93,0,0,1,19.5-6.14c13.46,0,20.88,7.88,20.88,18.68,0,10-7.24,17.94-15.84,25.64L73.31,136v.19H95.74v11.44Z" fill="#ffc043"/>
      <path d="M144.08,99.57H121l-1.28,9.15a26.18,26.18,0,0,1,3.84-.18c5.68,0,11.45,1.28,15.66,4.3,4.49,3,7.23,8,7.23,14.92,0,11.08-9.52,20.88-25.54,20.88-7.23,0-13.28-1.65-16.57-3.39l2.47-10.44a34.22,34.22,0,0,0,13.46,2.93c5.77,0,11.9-2.74,11.9-9.06,0-6.13-4.85-9.89-16.75-9.89a50.91,50.91,0,0,0-8.06.55l3.94-31.22h32.77Z" fill="#ffc043"/>
    </g>
  </g>
</svg>
